<mxfile host="app.diagrams.net" agent="Mozilla/5.0 (X11; Ubuntu; Linux x86_64; rv:132.0) Gecko/20100101 Firefox/132.0" version="24.8.8">
  <diagram name="Page-1" id="UOw1Wrs2Ukv2XqUkmplr">
    <mxGraphModel dx="1200" dy="573" grid="1" gridSize="10" guides="1" tooltips="1" connect="1" arrows="1" fold="1" page="1" pageScale="1" pageWidth="200" pageHeight="160" math="0" shadow="0">
      <root>
        <mxCell id="0" />
        <mxCell id="1" parent="0" />
        <mxCell id="IvOvP38VAkqT0ThzVuBI-1" value="" style="ellipse;whiteSpace=wrap;html=1;aspect=fixed;strokeWidth=8;strokeColor=#33FF99;" vertex="1" parent="1">
          <mxGeometry x="85" y="50" width="30" height="30" as="geometry" />
        </mxCell>
        <mxCell id="IvOvP38VAkqT0ThzVuBI-2" value="" style="ellipse;whiteSpace=wrap;html=1;aspect=fixed;strokeWidth=8;strokeColor=#33FF99;" vertex="1" parent="1">
          <mxGeometry x="150" y="90" width="30" height="30" as="geometry" />
        </mxCell>
        <mxCell id="IvOvP38VAkqT0ThzVuBI-3" value="" style="ellipse;whiteSpace=wrap;html=1;aspect=fixed;strokeWidth=8;strokeColor=#33FF99;" vertex="1" parent="1">
          <mxGeometry x="20" y="90" width="30" height="30" as="geometry" />
        </mxCell>
        <mxCell id="IvOvP38VAkqT0ThzVuBI-4" value="" style="ellipse;whiteSpace=wrap;html=1;aspect=fixed;strokeWidth=8;strokeColor=#33FF99;" vertex="1" parent="1">
          <mxGeometry x="85" y="110" width="30" height="30" as="geometry" />
        </mxCell>
        <mxCell id="IvOvP38VAkqT0ThzVuBI-5" value="" style="ellipse;whiteSpace=wrap;html=1;aspect=fixed;strokeWidth=8;strokeColor=#33FF99;" vertex="1" parent="1">
          <mxGeometry x="-20" y="140" width="30" height="30" as="geometry" />
        </mxCell>
        <mxCell id="IvOvP38VAkqT0ThzVuBI-6" value="" style="ellipse;whiteSpace=wrap;html=1;aspect=fixed;strokeWidth=8;strokeColor=#33FF99;" vertex="1" parent="1">
          <mxGeometry x="55" y="140" width="30" height="30" as="geometry" />
        </mxCell>
        <mxCell id="IvOvP38VAkqT0ThzVuBI-7" value="" style="ellipse;whiteSpace=wrap;html=1;aspect=fixed;strokeWidth=8;strokeColor=#33FF99;" vertex="1" parent="1">
          <mxGeometry x="115" y="140" width="30" height="30" as="geometry" />
        </mxCell>
        <mxCell id="IvOvP38VAkqT0ThzVuBI-8" value="" style="ellipse;whiteSpace=wrap;html=1;aspect=fixed;strokeWidth=8;strokeColor=#33FF99;" vertex="1" parent="1">
          <mxGeometry x="190" y="140" width="30" height="30" as="geometry" />
        </mxCell>
        <mxCell id="IvOvP38VAkqT0ThzVuBI-9" value="" style="endArrow=none;html=1;rounded=0;entryX=0;entryY=1;entryDx=0;entryDy=0;exitX=1;exitY=0;exitDx=0;exitDy=0;strokeWidth=5;strokeColor=#33FF99;" edge="1" parent="1" source="IvOvP38VAkqT0ThzVuBI-5" target="IvOvP38VAkqT0ThzVuBI-3">
          <mxGeometry width="50" height="50" relative="1" as="geometry">
            <mxPoint x="-90" y="190" as="sourcePoint" />
            <mxPoint x="-40" y="140" as="targetPoint" />
          </mxGeometry>
        </mxCell>
        <mxCell id="IvOvP38VAkqT0ThzVuBI-10" value="" style="endArrow=none;html=1;rounded=0;entryX=-0.067;entryY=0.733;entryDx=0;entryDy=0;exitX=1;exitY=0;exitDx=0;exitDy=0;strokeWidth=5;entryPerimeter=0;strokeColor=#33FF99;" edge="1" parent="1" source="IvOvP38VAkqT0ThzVuBI-3" target="IvOvP38VAkqT0ThzVuBI-1">
          <mxGeometry width="50" height="50" relative="1" as="geometry">
            <mxPoint x="16" y="154" as="sourcePoint" />
            <mxPoint x="34" y="126" as="targetPoint" />
          </mxGeometry>
        </mxCell>
        <mxCell id="IvOvP38VAkqT0ThzVuBI-11" value="" style="endArrow=none;html=1;rounded=0;entryX=0.5;entryY=1;entryDx=0;entryDy=0;exitX=0.5;exitY=0;exitDx=0;exitDy=0;strokeWidth=5;strokeColor=#33FF99;" edge="1" parent="1" source="IvOvP38VAkqT0ThzVuBI-4" target="IvOvP38VAkqT0ThzVuBI-1">
          <mxGeometry width="50" height="50" relative="1" as="geometry">
            <mxPoint x="26" y="164" as="sourcePoint" />
            <mxPoint x="44" y="136" as="targetPoint" />
          </mxGeometry>
        </mxCell>
        <mxCell id="IvOvP38VAkqT0ThzVuBI-12" value="" style="endArrow=none;html=1;rounded=0;entryX=1;entryY=1;entryDx=0;entryDy=0;exitX=0;exitY=0;exitDx=0;exitDy=0;strokeWidth=5;strokeColor=#33FF99;" edge="1" parent="1" source="IvOvP38VAkqT0ThzVuBI-6" target="IvOvP38VAkqT0ThzVuBI-3">
          <mxGeometry width="50" height="50" relative="1" as="geometry">
            <mxPoint x="36" y="174" as="sourcePoint" />
            <mxPoint x="54" y="146" as="targetPoint" />
          </mxGeometry>
        </mxCell>
        <mxCell id="IvOvP38VAkqT0ThzVuBI-13" value="" style="endArrow=none;html=1;rounded=0;entryX=1.017;entryY=0.717;entryDx=0;entryDy=0;exitX=0;exitY=0;exitDx=0;exitDy=0;strokeWidth=5;entryPerimeter=0;strokeColor=#33FF99;" edge="1" parent="1" source="IvOvP38VAkqT0ThzVuBI-2" target="IvOvP38VAkqT0ThzVuBI-1">
          <mxGeometry width="50" height="50" relative="1" as="geometry">
            <mxPoint x="46" y="184" as="sourcePoint" />
            <mxPoint x="64" y="156" as="targetPoint" />
          </mxGeometry>
        </mxCell>
        <mxCell id="IvOvP38VAkqT0ThzVuBI-14" value="" style="endArrow=none;html=1;rounded=0;entryX=1;entryY=1;entryDx=0;entryDy=0;exitX=0;exitY=0;exitDx=0;exitDy=0;strokeWidth=5;strokeColor=#33FF99;" edge="1" parent="1" source="IvOvP38VAkqT0ThzVuBI-8" target="IvOvP38VAkqT0ThzVuBI-2">
          <mxGeometry width="50" height="50" relative="1" as="geometry">
            <mxPoint x="56" y="194" as="sourcePoint" />
            <mxPoint x="74" y="166" as="targetPoint" />
          </mxGeometry>
        </mxCell>
        <mxCell id="IvOvP38VAkqT0ThzVuBI-15" value="" style="endArrow=none;html=1;rounded=0;entryX=0;entryY=1;entryDx=0;entryDy=0;exitX=1;exitY=0;exitDx=0;exitDy=0;strokeWidth=5;strokeColor=#33FF99;" edge="1" parent="1" source="IvOvP38VAkqT0ThzVuBI-7" target="IvOvP38VAkqT0ThzVuBI-2">
          <mxGeometry width="50" height="50" relative="1" as="geometry">
            <mxPoint x="66" y="204" as="sourcePoint" />
            <mxPoint x="84" y="176" as="targetPoint" />
          </mxGeometry>
        </mxCell>
        <mxCell id="IvOvP38VAkqT0ThzVuBI-16" value="" style="ellipse;whiteSpace=wrap;html=1;aspect=fixed;strokeWidth=8;strokeColor=#3399FF;" vertex="1" parent="1">
          <mxGeometry x="-175" y="50" width="30" height="30" as="geometry" />
        </mxCell>
        <mxCell id="IvOvP38VAkqT0ThzVuBI-17" value="" style="ellipse;whiteSpace=wrap;html=1;aspect=fixed;strokeWidth=8;strokeColor=#3399FF;" vertex="1" parent="1">
          <mxGeometry x="-110" y="90" width="30" height="30" as="geometry" />
        </mxCell>
        <mxCell id="IvOvP38VAkqT0ThzVuBI-18" value="" style="ellipse;whiteSpace=wrap;html=1;aspect=fixed;strokeWidth=8;strokeColor=#3399FF;" vertex="1" parent="1">
          <mxGeometry x="-240" y="90" width="30" height="30" as="geometry" />
        </mxCell>
        <mxCell id="IvOvP38VAkqT0ThzVuBI-19" value="" style="ellipse;whiteSpace=wrap;html=1;aspect=fixed;strokeWidth=8;strokeColor=#3399FF;" vertex="1" parent="1">
          <mxGeometry x="-175" y="110" width="30" height="30" as="geometry" />
        </mxCell>
        <mxCell id="IvOvP38VAkqT0ThzVuBI-20" value="" style="ellipse;whiteSpace=wrap;html=1;aspect=fixed;strokeWidth=8;strokeColor=#3399FF;" vertex="1" parent="1">
          <mxGeometry x="-280" y="140" width="30" height="30" as="geometry" />
        </mxCell>
        <mxCell id="IvOvP38VAkqT0ThzVuBI-21" value="" style="ellipse;whiteSpace=wrap;html=1;aspect=fixed;strokeWidth=8;strokeColor=#3399FF;" vertex="1" parent="1">
          <mxGeometry x="-205" y="140" width="30" height="30" as="geometry" />
        </mxCell>
        <mxCell id="IvOvP38VAkqT0ThzVuBI-22" value="" style="ellipse;whiteSpace=wrap;html=1;aspect=fixed;strokeWidth=8;strokeColor=#3399FF;" vertex="1" parent="1">
          <mxGeometry x="-145" y="140" width="30" height="30" as="geometry" />
        </mxCell>
        <mxCell id="IvOvP38VAkqT0ThzVuBI-23" value="" style="ellipse;whiteSpace=wrap;html=1;aspect=fixed;strokeWidth=8;strokeColor=#3399FF;" vertex="1" parent="1">
          <mxGeometry x="-70" y="140" width="30" height="30" as="geometry" />
        </mxCell>
        <mxCell id="IvOvP38VAkqT0ThzVuBI-24" value="" style="endArrow=none;html=1;rounded=0;entryX=0;entryY=1;entryDx=0;entryDy=0;exitX=1;exitY=0;exitDx=0;exitDy=0;strokeWidth=5;strokeColor=#3399FF;" edge="1" parent="1" source="IvOvP38VAkqT0ThzVuBI-20" target="IvOvP38VAkqT0ThzVuBI-18">
          <mxGeometry width="50" height="50" relative="1" as="geometry">
            <mxPoint x="-350" y="190" as="sourcePoint" />
            <mxPoint x="-300" y="140" as="targetPoint" />
          </mxGeometry>
        </mxCell>
        <mxCell id="IvOvP38VAkqT0ThzVuBI-25" value="" style="endArrow=none;html=1;rounded=0;entryX=-0.067;entryY=0.733;entryDx=0;entryDy=0;exitX=1;exitY=0;exitDx=0;exitDy=0;strokeWidth=5;entryPerimeter=0;strokeColor=#3399FF;" edge="1" parent="1" source="IvOvP38VAkqT0ThzVuBI-18" target="IvOvP38VAkqT0ThzVuBI-16">
          <mxGeometry width="50" height="50" relative="1" as="geometry">
            <mxPoint x="-244" y="154" as="sourcePoint" />
            <mxPoint x="-226" y="126" as="targetPoint" />
          </mxGeometry>
        </mxCell>
        <mxCell id="IvOvP38VAkqT0ThzVuBI-26" value="" style="endArrow=none;html=1;rounded=0;entryX=0.5;entryY=1;entryDx=0;entryDy=0;exitX=0.5;exitY=0;exitDx=0;exitDy=0;strokeWidth=5;strokeColor=#3399FF;" edge="1" parent="1" source="IvOvP38VAkqT0ThzVuBI-19" target="IvOvP38VAkqT0ThzVuBI-16">
          <mxGeometry width="50" height="50" relative="1" as="geometry">
            <mxPoint x="-234" y="164" as="sourcePoint" />
            <mxPoint x="-216" y="136" as="targetPoint" />
          </mxGeometry>
        </mxCell>
        <mxCell id="IvOvP38VAkqT0ThzVuBI-27" value="" style="endArrow=none;html=1;rounded=0;entryX=1;entryY=1;entryDx=0;entryDy=0;exitX=0;exitY=0;exitDx=0;exitDy=0;strokeWidth=5;strokeColor=#3399FF;" edge="1" parent="1" source="IvOvP38VAkqT0ThzVuBI-21" target="IvOvP38VAkqT0ThzVuBI-18">
          <mxGeometry width="50" height="50" relative="1" as="geometry">
            <mxPoint x="-224" y="174" as="sourcePoint" />
            <mxPoint x="-206" y="146" as="targetPoint" />
          </mxGeometry>
        </mxCell>
        <mxCell id="IvOvP38VAkqT0ThzVuBI-28" value="" style="endArrow=none;html=1;rounded=0;entryX=1.017;entryY=0.717;entryDx=0;entryDy=0;exitX=0;exitY=0;exitDx=0;exitDy=0;strokeWidth=5;entryPerimeter=0;strokeColor=#3399FF;" edge="1" parent="1" source="IvOvP38VAkqT0ThzVuBI-17" target="IvOvP38VAkqT0ThzVuBI-16">
          <mxGeometry width="50" height="50" relative="1" as="geometry">
            <mxPoint x="-214" y="184" as="sourcePoint" />
            <mxPoint x="-196" y="156" as="targetPoint" />
          </mxGeometry>
        </mxCell>
        <mxCell id="IvOvP38VAkqT0ThzVuBI-29" value="" style="endArrow=none;html=1;rounded=0;entryX=1;entryY=1;entryDx=0;entryDy=0;exitX=0;exitY=0;exitDx=0;exitDy=0;strokeWidth=5;strokeColor=#3399FF;" edge="1" parent="1" source="IvOvP38VAkqT0ThzVuBI-23" target="IvOvP38VAkqT0ThzVuBI-17">
          <mxGeometry width="50" height="50" relative="1" as="geometry">
            <mxPoint x="-204" y="194" as="sourcePoint" />
            <mxPoint x="-186" y="166" as="targetPoint" />
          </mxGeometry>
        </mxCell>
        <mxCell id="IvOvP38VAkqT0ThzVuBI-30" value="" style="endArrow=none;html=1;rounded=0;entryX=0;entryY=1;entryDx=0;entryDy=0;exitX=1;exitY=0;exitDx=0;exitDy=0;strokeWidth=5;strokeColor=#3399FF;" edge="1" parent="1" source="IvOvP38VAkqT0ThzVuBI-22" target="IvOvP38VAkqT0ThzVuBI-17">
          <mxGeometry width="50" height="50" relative="1" as="geometry">
            <mxPoint x="-194" y="204" as="sourcePoint" />
            <mxPoint x="-176" y="176" as="targetPoint" />
          </mxGeometry>
        </mxCell>
        <mxCell id="IvOvP38VAkqT0ThzVuBI-31" value="" style="ellipse;whiteSpace=wrap;html=1;aspect=fixed;strokeWidth=8;strokeColor=#FF9933;" vertex="1" parent="1">
          <mxGeometry x="345" y="50" width="30" height="30" as="geometry" />
        </mxCell>
        <mxCell id="IvOvP38VAkqT0ThzVuBI-32" value="" style="ellipse;whiteSpace=wrap;html=1;aspect=fixed;strokeWidth=8;strokeColor=#FF9933;" vertex="1" parent="1">
          <mxGeometry x="410" y="90" width="30" height="30" as="geometry" />
        </mxCell>
        <mxCell id="IvOvP38VAkqT0ThzVuBI-33" value="" style="ellipse;whiteSpace=wrap;html=1;aspect=fixed;strokeWidth=8;strokeColor=#FF9933;" vertex="1" parent="1">
          <mxGeometry x="280" y="90" width="30" height="30" as="geometry" />
        </mxCell>
        <mxCell id="IvOvP38VAkqT0ThzVuBI-34" value="" style="ellipse;whiteSpace=wrap;html=1;aspect=fixed;strokeWidth=8;strokeColor=#FF9933;" vertex="1" parent="1">
          <mxGeometry x="345" y="110" width="30" height="30" as="geometry" />
        </mxCell>
        <mxCell id="IvOvP38VAkqT0ThzVuBI-35" value="" style="ellipse;whiteSpace=wrap;html=1;aspect=fixed;strokeWidth=8;strokeColor=#FF9933;" vertex="1" parent="1">
          <mxGeometry x="240" y="140" width="30" height="30" as="geometry" />
        </mxCell>
        <mxCell id="IvOvP38VAkqT0ThzVuBI-36" value="" style="ellipse;whiteSpace=wrap;html=1;aspect=fixed;strokeWidth=8;strokeColor=#FF9933;" vertex="1" parent="1">
          <mxGeometry x="315" y="140" width="30" height="30" as="geometry" />
        </mxCell>
        <mxCell id="IvOvP38VAkqT0ThzVuBI-37" value="" style="ellipse;whiteSpace=wrap;html=1;aspect=fixed;strokeWidth=8;strokeColor=#FF9933;" vertex="1" parent="1">
          <mxGeometry x="375" y="140" width="30" height="30" as="geometry" />
        </mxCell>
        <mxCell id="IvOvP38VAkqT0ThzVuBI-38" value="" style="ellipse;whiteSpace=wrap;html=1;aspect=fixed;strokeWidth=8;strokeColor=#FF9933;" vertex="1" parent="1">
          <mxGeometry x="450" y="140" width="30" height="30" as="geometry" />
        </mxCell>
        <mxCell id="IvOvP38VAkqT0ThzVuBI-39" value="" style="endArrow=none;html=1;rounded=0;entryX=0;entryY=1;entryDx=0;entryDy=0;exitX=1;exitY=0;exitDx=0;exitDy=0;strokeWidth=5;strokeColor=#FF9933;" edge="1" parent="1" source="IvOvP38VAkqT0ThzVuBI-35" target="IvOvP38VAkqT0ThzVuBI-33">
          <mxGeometry width="50" height="50" relative="1" as="geometry">
            <mxPoint x="170" y="190" as="sourcePoint" />
            <mxPoint x="220" y="140" as="targetPoint" />
          </mxGeometry>
        </mxCell>
        <mxCell id="IvOvP38VAkqT0ThzVuBI-40" value="" style="endArrow=none;html=1;rounded=0;entryX=-0.067;entryY=0.733;entryDx=0;entryDy=0;exitX=1;exitY=0;exitDx=0;exitDy=0;strokeWidth=5;entryPerimeter=0;strokeColor=#FF9933;" edge="1" parent="1" source="IvOvP38VAkqT0ThzVuBI-33" target="IvOvP38VAkqT0ThzVuBI-31">
          <mxGeometry width="50" height="50" relative="1" as="geometry">
            <mxPoint x="276" y="154" as="sourcePoint" />
            <mxPoint x="294" y="126" as="targetPoint" />
          </mxGeometry>
        </mxCell>
        <mxCell id="IvOvP38VAkqT0ThzVuBI-41" value="" style="endArrow=none;html=1;rounded=0;entryX=0.5;entryY=1;entryDx=0;entryDy=0;exitX=0.5;exitY=0;exitDx=0;exitDy=0;strokeWidth=5;strokeColor=#FF9933;" edge="1" parent="1" source="IvOvP38VAkqT0ThzVuBI-34" target="IvOvP38VAkqT0ThzVuBI-31">
          <mxGeometry width="50" height="50" relative="1" as="geometry">
            <mxPoint x="286" y="164" as="sourcePoint" />
            <mxPoint x="304" y="136" as="targetPoint" />
          </mxGeometry>
        </mxCell>
        <mxCell id="IvOvP38VAkqT0ThzVuBI-42" value="" style="endArrow=none;html=1;rounded=0;entryX=1;entryY=1;entryDx=0;entryDy=0;exitX=0;exitY=0;exitDx=0;exitDy=0;strokeWidth=5;strokeColor=#FF9933;" edge="1" parent="1" source="IvOvP38VAkqT0ThzVuBI-36" target="IvOvP38VAkqT0ThzVuBI-33">
          <mxGeometry width="50" height="50" relative="1" as="geometry">
            <mxPoint x="296" y="174" as="sourcePoint" />
            <mxPoint x="314" y="146" as="targetPoint" />
          </mxGeometry>
        </mxCell>
        <mxCell id="IvOvP38VAkqT0ThzVuBI-43" value="" style="endArrow=none;html=1;rounded=0;entryX=1.017;entryY=0.717;entryDx=0;entryDy=0;exitX=0;exitY=0;exitDx=0;exitDy=0;strokeWidth=5;entryPerimeter=0;strokeColor=#FF9933;" edge="1" parent="1" source="IvOvP38VAkqT0ThzVuBI-32" target="IvOvP38VAkqT0ThzVuBI-31">
          <mxGeometry width="50" height="50" relative="1" as="geometry">
            <mxPoint x="306" y="184" as="sourcePoint" />
            <mxPoint x="324" y="156" as="targetPoint" />
          </mxGeometry>
        </mxCell>
        <mxCell id="IvOvP38VAkqT0ThzVuBI-44" value="" style="endArrow=none;html=1;rounded=0;entryX=1;entryY=1;entryDx=0;entryDy=0;exitX=0;exitY=0;exitDx=0;exitDy=0;strokeWidth=5;strokeColor=#FF9933;" edge="1" parent="1" source="IvOvP38VAkqT0ThzVuBI-38" target="IvOvP38VAkqT0ThzVuBI-32">
          <mxGeometry width="50" height="50" relative="1" as="geometry">
            <mxPoint x="316" y="194" as="sourcePoint" />
            <mxPoint x="334" y="166" as="targetPoint" />
          </mxGeometry>
        </mxCell>
        <mxCell id="IvOvP38VAkqT0ThzVuBI-45" value="" style="endArrow=none;html=1;rounded=0;entryX=0;entryY=1;entryDx=0;entryDy=0;exitX=1;exitY=0;exitDx=0;exitDy=0;strokeWidth=5;strokeColor=#FF9933;" edge="1" parent="1" source="IvOvP38VAkqT0ThzVuBI-37" target="IvOvP38VAkqT0ThzVuBI-32">
          <mxGeometry width="50" height="50" relative="1" as="geometry">
            <mxPoint x="326" y="204" as="sourcePoint" />
            <mxPoint x="344" y="176" as="targetPoint" />
          </mxGeometry>
        </mxCell>
        <mxCell id="IvOvP38VAkqT0ThzVuBI-46" value="" style="rounded=0;whiteSpace=wrap;html=1;fillColor=#9A9B9E;strokeColor=none;" vertex="1" parent="1">
          <mxGeometry x="20" y="-20" width="160" height="20" as="geometry" />
        </mxCell>
        <mxCell id="IvOvP38VAkqT0ThzVuBI-47" value="" style="rounded=0;whiteSpace=wrap;html=1;strokeColor=none;fillColor=#9A9B9E;" vertex="1" parent="1">
          <mxGeometry x="20" y="220" width="160" height="20" as="geometry" />
        </mxCell>
        <mxCell id="IvOvP38VAkqT0ThzVuBI-49" value="" style="endArrow=block;html=1;rounded=0;endFill=1;strokeWidth=2;strokeColor=#9A9B9E;" edge="1" parent="1">
          <mxGeometry width="50" height="50" relative="1" as="geometry">
            <mxPoint x="100" y="10" as="sourcePoint" />
            <mxPoint x="100" y="40" as="targetPoint" />
          </mxGeometry>
        </mxCell>
        <mxCell id="IvOvP38VAkqT0ThzVuBI-50" value="" style="endArrow=block;html=1;rounded=0;endFill=1;strokeWidth=2;strokeColor=#9A9B9E;" edge="1" parent="1">
          <mxGeometry width="50" height="50" relative="1" as="geometry">
            <mxPoint x="10" y="-10" as="sourcePoint" />
            <mxPoint x="-160" y="40" as="targetPoint" />
            <Array as="points">
              <mxPoint x="-160" y="-10" />
            </Array>
          </mxGeometry>
        </mxCell>
        <mxCell id="IvOvP38VAkqT0ThzVuBI-51" value="" style="endArrow=block;html=1;rounded=0;endFill=1;strokeWidth=2;strokeColor=#9A9B9E;" edge="1" parent="1">
          <mxGeometry width="50" height="50" relative="1" as="geometry">
            <mxPoint x="190" y="-10" as="sourcePoint" />
            <mxPoint x="360" y="40" as="targetPoint" />
            <Array as="points">
              <mxPoint x="360" y="-10" />
            </Array>
          </mxGeometry>
        </mxCell>
        <mxCell id="IvOvP38VAkqT0ThzVuBI-52" value="" style="endArrow=block;html=1;rounded=0;endFill=1;strokeWidth=2;strokeColor=#9A9B9E;" edge="1" parent="1">
          <mxGeometry width="50" height="50" relative="1" as="geometry">
            <mxPoint x="-160" y="180" as="sourcePoint" />
            <mxPoint x="10" y="230" as="targetPoint" />
            <Array as="points">
              <mxPoint x="-160" y="230" />
            </Array>
          </mxGeometry>
        </mxCell>
        <mxCell id="IvOvP38VAkqT0ThzVuBI-53" value="" style="endArrow=block;html=1;rounded=0;endFill=1;strokeWidth=2;strokeColor=#9A9B9E;" edge="1" parent="1">
          <mxGeometry width="50" height="50" relative="1" as="geometry">
            <mxPoint x="100" y="180" as="sourcePoint" />
            <mxPoint x="100" y="210" as="targetPoint" />
          </mxGeometry>
        </mxCell>
        <mxCell id="IvOvP38VAkqT0ThzVuBI-54" value="" style="endArrow=block;html=1;rounded=0;endFill=1;strokeWidth=2;strokeColor=#9A9B9E;" edge="1" parent="1">
          <mxGeometry width="50" height="50" relative="1" as="geometry">
            <mxPoint x="360" y="180" as="sourcePoint" />
            <mxPoint x="190" y="230" as="targetPoint" />
            <Array as="points">
              <mxPoint x="360" y="230" />
            </Array>
          </mxGeometry>
        </mxCell>
      </root>
    </mxGraphModel>
  </diagram>
</mxfile>
